<svg xmlns="http://www.w3.org/2000/svg" viewBox="0 0 12.3 7.71"><defs><style>.cls-1{fill:#80808b;}</style></defs><g id="Layer_2" data-name="Layer 2"><g id="Body"><g id="Contacto"><path class="cls-1" d="M3.57,0C4.86,0,6,.37,6,1.87A1.62,1.62,0,0,1,5,3.45,1.83,1.83,0,0,1,6.34,5.37c0,1.54-1.3,2.2-2.67,2.2H0V0ZM3.35,3.06c.6,0,1-.26,1-.9s-.54-.87-1.14-.87H1.66V3.06Zm.09,3.22c.68,0,1.23-.24,1.23-1S4.21,4.2,3.48,4.2H1.66V6.28Zm7.43-.41H12.2A2.45,2.45,0,0,1,9.63,7.71a2.67,2.67,0,0,1-2.8-2.88,2.75,2.75,0,0,1,2.8-2.9,2.7,2.7,0,0,1,2.67,3c0,.09,0,.19,0,.28H8.34A1.23,1.23,0,0,0,9.68,6.58,1.23,1.23,0,0,0,10.87,5.87ZM8,.51v.75H11.1V.51Zm.31,3.73h2.45a1.13,1.13,0,0,0-1.2-1.17A1.17,1.17,0,0,0,8.34,4.24Z"/></g></g></g></svg>