<svg xmlns="http://www.w3.org/2000/svg" viewBox="0 0 10.91 9.23"><defs><style>.cls-1{fill:#80808b;}</style></defs><g id="Layer_2" data-name="Layer 2"><g id="Body"><g id="Contacto"><path class="cls-1" d="M10.51,7.31C9.65,9.06,7.27,9.23,5.56,9.23S1.3,9.08.41,7.31A4.75,4.75,0,0,1,0,5.14a3.9,3.9,0,0,1,.89-2.6A3.53,3.53,0,0,1,.71,1.43,3.27,3.27,0,0,1,1.05,0,3.74,3.74,0,0,1,3.53,1.07a8.72,8.72,0,0,1,2-.23,7.58,7.58,0,0,1,1.84.21A3.76,3.76,0,0,1,9.86,0a3.27,3.27,0,0,1,.34,1.43A3.43,3.43,0,0,1,10,2.53a3.92,3.92,0,0,1,.89,2.61A4.9,4.9,0,0,1,10.51,7.31ZM7.76,4.41a9.41,9.41,0,0,0-1.28.13,5.84,5.84,0,0,1-1,.08,5.88,5.88,0,0,1-1-.08,9.25,9.25,0,0,0-1.28-.13A1.72,1.72,0,0,0,1.47,6.29c0,2,1.83,2.32,3.43,2.32H6c1.6,0,3.43-.31,3.43-2.32A1.72,1.72,0,0,0,7.76,4.41ZM3.36,7.55c-.59,0-.84-.78-.84-1.26S2.77,5,3.36,5s.84.78.84,1.25S4,7.55,3.36,7.55Zm4.19,0c-.59,0-.84-.78-.84-1.26S7,5,7.55,5s.84.78.84,1.25S8.14,7.55,7.55,7.55Z"/></g></g></g></svg>