<svg xmlns="http://www.w3.org/2000/svg" viewBox="0 0 9.74 9.31"><defs><style>.cls-1{fill:#80808b;}</style></defs><g id="Layer_2" data-name="Layer 2"><g id="Body"><g id="Contacto"><path class="cls-1" d="M1.17,2.17h0A1.08,1.08,0,0,1,0,1.08,1.09,1.09,0,0,1,1.18,0a1.09,1.09,0,1,1,0,2.17Zm1,7.14H.12V3H2.21Zm7.53,0H7.65V6c0-.85-.3-1.42-1.06-1.42a1.14,1.14,0,0,0-1.07.76,1.57,1.57,0,0,0-.07.51V9.31H3.37c0-5.7,0-6.29,0-6.29H5.45v.92h0A2.07,2.07,0,0,1,7.33,2.88c1.38,0,2.41.9,2.41,2.83Z"/></g></g></g></svg>