<svg xmlns="http://www.w3.org/2000/svg" viewBox="0 0 9.01 5.41"><defs><style>.cls-1{fill:#80808b;}</style></defs><g id="Layer_2" data-name="Layer 2"><g id="Body"><path class="cls-1" d="M8.15,1.67c-.79.41-1.57.83-2.35,1.25a3.47,3.47,0,0,1-1.29.52h0a3.47,3.47,0,0,1-1.29-.52L.86,1.67C.51,1.48,0,1.05,0,.7A.71.71,0,0,1,.8,0H8.2A.74.74,0,0,1,9,.62C9,1.05,8.59,1.43,8.15,1.67ZM9,4.8c0,.34-.36.61-.81.61H.8A.72.72,0,0,1,0,4.8v-3a3.2,3.2,0,0,0,.51.33C1.34,2.51,2.19,3,3,3.41a3.25,3.25,0,0,0,1.49.53h0A3.25,3.25,0,0,0,6,3.41c.82-.46,1.67-.9,2.51-1.33A3.61,3.61,0,0,0,9,1.75Z"/></g></g></svg>