<svg xmlns="http://www.w3.org/2000/svg" viewBox="0 0 8.44 8.44"><defs><style>.cls-1{fill:#80808b;}</style></defs><g id="Layer_2" data-name="Layer 2"><g id="Body"><path class="cls-1" d="M8.26,7.5a1.65,1.65,0,0,1-.74.64,2.28,2.28,0,0,1-1.11.3A4.73,4.73,0,0,1,4.84,8a5.62,5.62,0,0,1-1-.5A10.13,10.13,0,0,1,.91,4.65,6.33,6.33,0,0,1,.41,3.6,4.73,4.73,0,0,1,0,2,2.19,2.19,0,0,1,.31.92,1.56,1.56,0,0,1,.94.19,2.7,2.7,0,0,1,1.77,0,.27.27,0,0,1,1.9,0c.13,0,.26.33.32.45l.57,1c.1.15.28.35.28.53C3.07,2.4,2,2.93,2,3.26a1.19,1.19,0,0,0,.24.51A5.9,5.9,0,0,0,4.67,6.22a1.18,1.18,0,0,0,.52.24c.32,0,.85-1.09,1.22-1.09.18,0,.38.18.53.28.34.2.69.38,1,.57.12.06.41.2.45.32a.27.27,0,0,1,0,.13A2.69,2.69,0,0,1,8.26,7.5Z"/></g></g></svg>